<svg width="2199" height="1229" viewBox="0 0 2199 1229" fill="none" xmlns="http://www.w3.org/2000/svg">
<path d="M902.354 971.904C903.516 970.742 903.516 968.858 902.354 967.696L883.421 948.763C882.259 947.601 880.375 947.601 879.213 948.763C878.051 949.925 878.051 951.809 879.213 952.971L896.042 969.8L879.213 986.629C878.051 987.791 878.051 989.675 879.213 990.837C880.375 991.998 882.259 991.998 883.421 990.837L902.354 971.904ZM214.3 972.775H900.25V966.825H214.3V972.775Z" fill="#E74C3C"/>
<path d="M218.104 235.846C216.942 234.685 215.058 234.685 213.896 235.846L194.964 254.779C193.802 255.941 193.802 257.825 194.964 258.986C196.125 260.148 198.009 260.148 199.171 258.986L216 242.157L232.829 258.986C233.991 260.148 235.875 260.148 237.037 258.986C238.199 257.825 238.199 255.941 237.037 254.779L218.104 235.846ZM218.975 972.35V237.95H213.025V972.35H218.975Z" fill="#2ECC71"/>
<path d="M216 974.05C218.347 974.05 220.25 971.957 220.25 969.375C220.25 966.793 218.347 964.7 216 964.7C213.653 964.7 211.75 966.793 211.75 969.375C211.75 971.957 213.653 974.05 216 974.05Z" fill="black"/>
<path d="M210 999.103C210 1003.89 209.224 1008.09 207.671 1011.7C206.118 1015.31 203.891 1018.1 200.99 1020.06C198.11 1022.02 194.8 1023 191.061 1023C187.363 1023 184.064 1022.03 181.163 1020.09C178.262 1018.15 176.015 1015.39 174.421 1011.8C172.827 1008.19 172.02 1004.05 172 999.37V996.964C172 992.174 172.787 987.962 174.36 984.331C175.953 980.676 178.19 977.88 181.071 975.942C183.972 973.981 187.282 973 191 973C194.718 973 198.018 973.981 200.898 975.942C203.799 977.88 206.037 980.676 207.61 984.331C209.203 987.962 210 992.163 210 996.931V999.103ZM200.684 996.897C200.684 991.795 199.846 987.917 198.171 985.266C196.496 982.614 194.105 981.289 191 981.289C187.915 981.289 185.535 982.604 183.86 985.232C182.184 987.839 181.337 991.672 181.316 996.73V999.103C181.316 1004.07 182.154 1007.93 183.829 1010.67C185.504 1013.41 187.915 1014.78 191.061 1014.78C194.146 1014.78 196.516 1013.46 198.171 1010.83C199.826 1008.18 200.663 1004.33 200.684 999.27V996.897Z" fill="black"/>
<path d="M183.175 229.218L192.306 208.944H202.19L187.785 237.625V253.944H178.594V237.625L164.19 208.944H174.104L183.175 229.218Z" fill="#2ECC71"/>
<path d="M934.139 988.609L942.385 973.094H952.806L939.999 995.408L953.139 1018.09H942.596L934.139 1002.33L925.68 1018.09H915.139L928.278 995.408L915.47 973.094H925.891L934.139 988.609Z" fill="#E74C3C"/>
<path d="M1961 387C1961 360.49 1939.51 339 1913 339H319C292.49 339 271 360.49 271 387V875C271 901.51 292.49 923 319 923H1913C1939.51 923 1961 901.51 1961 875V387Z" fill="#E5E5E5"/>
<path d="M928.266 630.266L919.922 638.938V662H910.922V593.75H919.922V627.5L950.25 593.75H961.125L934.266 623.891L963.234 662H952.453L928.266 630.266ZM1023.56 662H1014.52V630.453H980.109V662H971.109V593.75H980.109V623.094H1014.52V593.75H1023.56V662ZM1092.05 630.078C1092.05 636.766 1090.92 642.609 1088.67 647.609C1086.42 652.578 1083.23 656.375 1079.11 659C1074.98 661.625 1070.17 662.938 1064.67 662.938C1059.3 662.938 1054.53 661.625 1050.38 659C1046.22 656.344 1042.98 652.578 1040.67 647.703C1038.39 642.797 1037.22 637.125 1037.16 630.688V625.766C1037.16 619.203 1038.3 613.406 1040.58 608.375C1042.86 603.344 1046.08 599.5 1050.23 596.844C1054.42 594.156 1059.2 592.812 1064.58 592.812C1070.05 592.812 1074.86 594.141 1079.02 596.797C1083.2 599.422 1086.42 603.25 1088.67 608.281C1090.92 613.281 1092.05 619.109 1092.05 625.766V630.078ZM1083.09 625.672C1083.09 617.578 1081.47 611.375 1078.22 607.062C1074.97 602.719 1070.42 600.547 1064.58 600.547C1058.89 600.547 1054.41 602.719 1051.12 607.062C1047.88 611.375 1046.2 617.375 1046.11 625.062V630.078C1046.11 637.922 1047.75 644.094 1051.03 648.594C1054.34 653.062 1058.89 655.297 1064.67 655.297C1070.48 655.297 1074.98 653.188 1078.17 648.969C1081.36 644.719 1083 638.641 1083.09 630.734V625.672ZM1138.41 654.641H1170.75V662H1129.36V593.75H1138.41V654.641ZM1219.64 644.188H1191.05L1184.62 662H1175.34L1201.41 593.75H1209.28L1235.39 662H1226.16L1219.64 644.188ZM1193.77 636.781H1216.97L1205.34 604.859L1193.77 636.781ZM1200.75 673.484C1200.75 672.078 1201.17 670.891 1202.02 669.922C1202.89 668.953 1204.17 668.469 1205.86 668.469C1207.55 668.469 1208.83 668.953 1209.7 669.922C1210.58 670.891 1211.02 672.078 1211.02 673.484C1211.02 674.891 1210.58 676.062 1209.7 677C1208.83 677.938 1207.55 678.406 1205.86 678.406C1204.17 678.406 1202.89 677.938 1202.02 677C1201.17 676.062 1200.75 674.891 1200.75 673.484ZM1297.03 662H1287.98L1253.62 609.406V662H1244.58V593.75H1253.62L1288.08 646.578V593.75H1297.03V662ZM1365.47 662H1356.42V630.453H1322.02V662H1313.02V593.75H1322.02V623.094H1356.42V593.75H1365.47V662Z" fill="black"/>
<path d="M114.672 639.266C114.141 646.609 111.422 652.391 106.516 656.609C101.641 660.828 95.2031 662.938 87.2031 662.938C78.4531 662.938 71.5625 660 66.5312 654.125C61.5312 648.219 59.0312 640.125 59.0312 629.844V625.672C59.0312 619.109 60.1875 613.328 62.5 608.328C64.8125 603.328 68.1094 599.5 72.3906 596.844C76.7031 594.156 81.7031 592.812 87.3906 592.812C95.2656 592.812 101.609 594.922 106.422 599.141C111.234 603.359 114.016 609.281 114.766 616.906H100.703C100.359 612.5 99.125 609.312 97 607.344C94.9062 605.344 91.7031 604.344 87.3906 604.344C82.7031 604.344 79.1875 606.031 76.8438 609.406C74.5312 612.75 73.3438 617.953 73.2812 625.016V630.172C73.2812 637.547 74.3906 642.938 76.6094 646.344C78.8594 649.75 82.3906 651.453 87.2031 651.453C91.5469 651.453 94.7812 650.469 96.9062 648.5C99.0625 646.5 100.297 643.422 100.609 639.266H114.672Z" fill="#007BFF"/>
<path d="M2055.09 662V593.75H2076.09C2082.09 593.75 2087.45 595.109 2092.17 597.828C2096.92 600.516 2100.62 604.359 2103.28 609.359C2105.94 614.328 2107.27 619.984 2107.27 626.328V629.469C2107.27 635.812 2105.95 641.453 2103.33 646.391C2100.73 651.328 2097.06 655.156 2092.31 657.875C2087.56 660.594 2082.2 661.969 2076.23 662H2055.09ZM2069.16 605.141V650.703H2075.95C2081.45 650.703 2085.66 648.906 2088.56 645.312C2091.47 641.719 2092.95 636.578 2093.02 629.891V626.281C2093.02 619.344 2091.58 614.094 2088.7 610.531C2085.83 606.938 2081.62 605.141 2076.09 605.141H2069.16Z" fill="#007BFF"/>
<path d="M1106.09 162V93.75H1130C1138.28 93.75 1144.56 95.3438 1148.84 98.5312C1153.12 101.688 1155.27 106.328 1155.27 112.453C1155.27 115.797 1154.41 118.75 1152.69 121.312C1150.97 123.844 1148.58 125.703 1145.52 126.891C1149.02 127.766 1151.77 129.531 1153.77 132.188C1155.8 134.844 1156.81 138.094 1156.81 141.938C1156.81 148.5 1154.72 153.469 1150.53 156.844C1146.34 160.219 1140.38 161.938 1132.62 162H1106.09ZM1120.16 132.281V150.703H1132.2C1135.52 150.703 1138.09 149.922 1139.94 148.359C1141.81 146.766 1142.75 144.578 1142.75 141.797C1142.75 135.547 1139.52 132.375 1133.05 132.281H1120.16ZM1120.16 122.344H1130.56C1137.66 122.219 1141.2 119.391 1141.2 113.859C1141.2 110.766 1140.3 108.547 1138.48 107.203C1136.7 105.828 1133.88 105.141 1130 105.141H1120.16V122.344Z" fill="#007BFF"/>
<path d="M1145.62 1127.94H1120.97L1116.28 1142H1101.33L1126.73 1073.75H1139.77L1165.31 1142H1150.36L1145.62 1127.94ZM1124.77 1116.55H1141.83L1133.25 1091L1124.77 1116.55Z" fill="#007BFF"/>
<path d="M166.121 697.121C167.293 695.95 167.293 694.05 166.121 692.879L147.029 673.787C145.858 672.615 143.958 672.615 142.787 673.787C141.615 674.958 141.615 676.858 142.787 678.029L159.757 695L142.787 711.971C141.615 713.142 141.615 715.042 142.787 716.213C143.958 717.385 145.858 717.385 147.029 716.213L166.121 697.121ZM43 698H164V692H43V698Z" fill="black"/>
<path d="M166.121 697.121C167.293 695.95 167.293 694.05 166.121 692.879L147.029 673.787C145.858 672.615 143.958 672.615 142.787 673.787C141.615 674.958 141.615 676.858 142.787 678.029L159.757 695L142.787 711.971C141.615 713.142 141.615 715.042 142.787 716.213C143.958 717.385 145.858 717.385 147.029 716.213L166.121 697.121ZM43 698H164V692H43V698Z" fill="black"/>
<path d="M2016.88 684.879C2015.71 686.05 2015.71 687.95 2016.88 689.121L2035.97 708.213C2037.14 709.385 2039.04 709.385 2040.21 708.213C2041.38 707.042 2041.38 705.142 2040.21 703.971L2023.24 687L2040.21 670.029C2041.38 668.858 2041.38 666.958 2040.21 665.787C2039.04 664.615 2037.14 664.615 2035.97 665.787L2016.88 684.879ZM2140 684H2019V690H2140V684Z" fill="black"/>
<path d="M1194.12 1028.88C1192.95 1027.71 1191.05 1027.71 1189.88 1028.88L1170.79 1047.97C1169.62 1049.14 1169.62 1051.04 1170.79 1052.21C1171.96 1053.38 1173.86 1053.38 1175.03 1052.21L1192 1035.24L1208.97 1052.21C1210.14 1053.38 1212.04 1053.38 1213.21 1052.21C1214.38 1051.04 1214.38 1049.14 1213.21 1047.97L1194.12 1028.88ZM1195 1152V1031H1189V1152H1195Z" fill="black"/>
<path d="M1189.88 196.121C1191.05 197.293 1192.95 197.293 1194.12 196.121L1213.21 177.029C1214.38 175.858 1214.38 173.958 1213.21 172.787C1212.04 171.615 1210.14 171.615 1208.97 172.787L1192 189.757L1175.03 172.787C1173.86 171.615 1171.96 171.615 1170.79 172.787C1169.62 173.958 1169.62 175.858 1170.79 177.029L1189.88 196.121ZM1189 73V194H1195V73H1189Z" fill="black"/>
<rect x="0.5" y="0.5" width="2198" height="1228" rx="28.5" stroke="black"/>
</svg>
