<svg width="1000" height="1000" viewBox="0 0 1000 1000" fill="none" xmlns="http://www.w3.org/2000/svg">
<rect width="1000" height="1000" fill="white"/>
<path d="M907.475 930.475C908.842 929.108 908.842 926.892 907.475 925.525L885.201 903.251C883.834 901.884 881.618 901.884 880.251 903.251C878.884 904.618 878.884 906.834 880.251 908.201L900.05 928L880.251 947.799C878.884 949.166 878.884 951.382 880.251 952.749C881.618 954.116 883.834 954.116 885.201 952.749L907.475 930.475ZM98 931.5H905V924.5H98V931.5Z" fill="#E74C3C"/>
<path d="M102.475 64.5251C101.108 63.1582 98.892 63.1582 97.5251 64.5251L75.2513 86.7989C73.8844 88.1658 73.8844 90.3818 75.2513 91.7487C76.6181 93.1155 78.8342 93.1155 80.201 91.7487L100 71.9497L119.799 91.7487C121.166 93.1155 123.382 93.1155 124.749 91.7487C126.116 90.3818 126.116 88.1658 124.749 86.7989L102.475 64.5251ZM103.5 931L103.5 66.9999H96.5L96.5 931H103.5Z" fill="#2ECC71"/>
<ellipse cx="100" cy="927.5" rx="5" ry="5.5" fill="black"/>
<path d="M93.0781 949.711C93.0781 953.07 92.4844 956.016 91.2969 958.547C90.1094 961.078 88.4062 963.031 86.1875 964.406C83.9844 965.781 81.4531 966.469 78.5938 966.469C75.7656 966.469 73.2422 965.789 71.0234 964.43C68.8047 963.07 67.0859 961.133 65.8672 958.617C64.6484 956.086 64.0312 953.18 64.0156 949.898V948.211C64.0156 944.852 64.6172 941.898 65.8203 939.352C67.0391 936.789 68.75 934.828 70.9531 933.469C73.1719 932.094 75.7031 931.406 78.5469 931.406C81.3906 931.406 83.9141 932.094 86.1172 933.469C88.3359 934.828 90.0469 936.789 91.25 939.352C92.4688 941.898 93.0781 944.844 93.0781 948.188V949.711ZM85.9531 948.164C85.9531 944.586 85.3125 941.867 84.0312 940.008C82.75 938.148 80.9219 937.219 78.5469 937.219C76.1875 937.219 74.3672 938.141 73.0859 939.984C71.8047 941.812 71.1562 944.5 71.1406 948.047V949.711C71.1406 953.195 71.7812 955.898 73.0625 957.82C74.3438 959.742 76.1875 960.703 78.5938 960.703C80.9531 960.703 82.7656 959.781 84.0312 957.938C85.2969 956.078 85.9375 953.375 85.9531 949.828V948.164Z" fill="black"/>
<path d="M53.8125 48.25L60.9141 32.875H68.6016L57.3984 54.625V67H50.25V54.625L39.0469 32.875H46.7578L53.8125 48.25Z" fill="#2ECC71"/>
<path d="M937.258 943.641L943.656 931.875H951.742L941.805 948.797L952 966H943.82L937.258 954.047L930.695 966H922.516L932.711 948.797L922.773 931.875H930.859L937.258 943.641Z" fill="#E74C3C"/>
</svg>
