<svg width="24" height="24" viewBox="0 0 24 24" fill="none" xmlns="http://www.w3.org/2000/svg">
<path opacity="0.3" d="M18 4H6C4.89543 4 4 4.89543 4 6V18C4 19.1046 4.89543 20 6 20H18C19.1046 20 20 19.1046 20 18V6C20 4.89543 19.1046 4 18 4Z" fill="#FFAA00"/>
<path opacity="0.3" d="M15 9H9V15H15V9Z" fill="#FF5500"/>
<path fill-rule="evenodd" clip-rule="evenodd" d="M20 7H21C21.5523 7 22 7.44772 22 8C22 8.55228 21.5523 9 21 9H20V7Z" fill="#FF2B00"/>
<path fill-rule="evenodd" clip-rule="evenodd" d="M20 11H21C21.5523 11 22 11.4477 22 12C22 12.5523 21.5523 13 21 13H20V11Z" fill="#FF2B00"/>
<path fill-rule="evenodd" clip-rule="evenodd" d="M20 15H21C21.5523 15 22 15.4477 22 16C22 16.5523 21.5523 17 21 17H20V15Z" fill="#FF2B00"/>
<path fill-rule="evenodd" clip-rule="evenodd" d="M3 7H4V9H3C2.44772 9 2 8.55228 2 8C2 7.44772 2.44772 7 3 7Z" fill="#FF2B00"/>
<path fill-rule="evenodd" clip-rule="evenodd" d="M3 11H4V13H3C2.44772 13 2 12.5523 2 12C2 11.4477 2.44772 11 3 11Z" fill="#FF2B00"/>
<path fill-rule="evenodd" clip-rule="evenodd" d="M3 15H4V17H3C2.44772 17 2 16.5523 2 16C2 15.4477 2.44772 15 3 15Z" fill="#FF2B00"/>
</svg>
