<svg width="480" height="100" viewBox="0 0 480 100" fill="none" xmlns="http://www.w3.org/2000/svg">
<rect id="_hv0" x="0" width="2" height="100" fill="hsl(0, 100%, 50%)"/>
<rect id="_hv1" x="2" width="2" height="100" fill="hsl(1, 100%, 50%)"/>
<rect id="_hv2" x="4" width="2" height="100" fill="hsl(2, 100%, 50%)"/>
<rect id="_hv3" x="6" width="2" height="100" fill="hsl(3, 100%, 50%)"/>
<rect id="_hv4" x="8" width="2" height="100" fill="hsl(4, 100%, 50%)"/>
<rect id="_hv5" x="10" width="2" height="100" fill="hsl(5, 100%, 50%)"/>
<rect id="_hv6" x="12" width="2" height="100" fill="hsl(6, 100%, 50%)"/>
<rect id="_hv7" x="14" width="2" height="100" fill="hsl(7, 100%, 50%)"/>
<rect id="_hv8" x="16" width="2" height="100" fill="hsl(8, 100%, 50%)"/>
<rect id="_hv9" x="18" width="2" height="100" fill="hsl(9, 100%, 50%)"/>
<rect id="_hv10" x="20" width="2" height="100" fill="hsl(10, 100%, 50%)"/>
<rect id="_hv11" x="22" width="2" height="100" fill="hsl(11, 100%, 50%)"/>
<rect id="_hv12" x="24" width="2" height="100" fill="hsl(12, 100%, 50%)"/>
<rect id="_hv13" x="26" width="2" height="100" fill="hsl(13, 100%, 50%)"/>
<rect id="_hv14" x="28" width="2" height="100" fill="hsl(14, 100%, 50%)"/>
<rect id="_hv15" x="30" width="2" height="100" fill="hsl(15, 100%, 50%)"/>
<rect id="_hv16" x="32" width="2" height="100" fill="hsl(16, 100%, 50%)"/>
<rect id="_hv17" x="34" width="2" height="100" fill="hsl(17, 100%, 50%)"/>
<rect id="_hv18" x="36" width="2" height="100" fill="hsl(18, 100%, 50%)"/>
<rect id="_hv19" x="38" width="2" height="100" fill="hsl(19, 100%, 50%)"/>
<rect id="_hv20" x="40" width="2" height="100" fill="hsl(20, 100%, 50%)"/>
<rect id="_hv21" x="42" width="2" height="100" fill="hsl(21, 100%, 50%)"/>
<rect id="_hv22" x="44" width="2" height="100" fill="hsl(22, 100%, 50%)"/>
<rect id="_hv23" x="46" width="2" height="100" fill="hsl(23, 100%, 50%)"/>
<rect id="_hv24" x="48" width="2" height="100" fill="hsl(24, 100%, 50%)"/>
<rect id="_hv25" x="50" width="2" height="100" fill="hsl(25, 100%, 50%)"/>
<rect id="_hv26" x="52" width="2" height="100" fill="hsl(26, 100%, 50%)"/>
<rect id="_hv27" x="54" width="2" height="100" fill="hsl(27, 100%, 50%)"/>
<rect id="_hv28" x="56" width="2" height="100" fill="hsl(28, 100%, 50%)"/>
<rect id="_hv29" x="58" width="2" height="100" fill="hsl(29, 100%, 50%)"/>
<rect id="_hv30" x="60" width="2" height="100" fill="hsl(30, 100%, 50%)"/>
<rect id="_hv31" x="62" width="2" height="100" fill="hsl(31, 100%, 50%)"/>
<rect id="_hv32" x="64" width="2" height="100" fill="hsl(32, 100%, 50%)"/>
<rect id="_hv33" x="66" width="2" height="100" fill="hsl(33, 100%, 50%)"/>
<rect id="_hv34" x="68" width="2" height="100" fill="hsl(34, 100%, 50%)"/>
<rect id="_hv35" x="70" width="2" height="100" fill="hsl(35, 100%, 50%)"/>
<rect id="_hv36" x="72" width="2" height="100" fill="hsl(36, 100%, 50%)"/>
<rect id="_hv37" x="74" width="2" height="100" fill="hsl(37, 100%, 50%)"/>
<rect id="_hv38" x="76" width="2" height="100" fill="hsl(38, 100%, 50%)"/>
<rect id="_hv39" x="78" width="2" height="100" fill="hsl(39, 100%, 50%)"/>
<rect id="_hv40" x="80" width="2" height="100" fill="hsl(40, 100%, 50%)"/>
<rect id="_hv41" x="82" width="2" height="100" fill="hsl(41, 100%, 50%)"/>
<rect id="_hv42" x="84" width="2" height="100" fill="hsl(42, 100%, 50%)"/>
<rect id="_hv43" x="86" width="2" height="100" fill="hsl(43, 100%, 50%)"/>
<rect id="_hv44" x="88" width="2" height="100" fill="hsl(44, 100%, 50%)"/>
<rect id="_hv45" x="90" width="2" height="100" fill="hsl(45, 100%, 50%)"/>
<rect id="_hv46" x="92" width="2" height="100" fill="hsl(46, 100%, 50%)"/>
<rect id="_hv47" x="94" width="2" height="100" fill="hsl(47, 100%, 50%)"/>
<rect id="_hv48" x="96" width="2" height="100" fill="hsl(48, 100%, 50%)"/>
<rect id="_hv49" x="98" width="2" height="100" fill="hsl(49, 100%, 50%)"/>
<rect id="_hv50" x="100" width="2" height="100" fill="hsl(50, 100%, 50%)"/>
<rect id="_hv51" x="102" width="2" height="100" fill="hsl(51, 100%, 50%)"/>
<rect id="_hv52" x="104" width="2" height="100" fill="hsl(52, 100%, 50%)"/>
<rect id="_hv53" x="106" width="2" height="100" fill="hsl(53, 100%, 50%)"/>
<rect id="_hv54" x="108" width="2" height="100" fill="hsl(54, 100%, 50%)"/>
<rect id="_hv55" x="110" width="2" height="100" fill="hsl(55, 100%, 50%)"/>
<rect id="_hv56" x="112" width="2" height="100" fill="hsl(56, 100%, 50%)"/>
<rect id="_hv57" x="114" width="2" height="100" fill="hsl(57, 100%, 50%)"/>
<rect id="_hv58" x="116" width="2" height="100" fill="hsl(58, 100%, 50%)"/>
<rect id="_hv59" x="118" width="2" height="100" fill="hsl(59, 100%, 50%)"/>
<rect id="_hv60" x="120" width="2" height="100" fill="hsl(60, 100%, 50%)"/>
<rect id="_hv61" x="122" width="2" height="100" fill="hsl(61, 100%, 50%)"/>
<rect id="_hv62" x="124" width="2" height="100" fill="hsl(62, 100%, 50%)"/>
<rect id="_hv63" x="126" width="2" height="100" fill="hsl(63, 100%, 50%)"/>
<rect id="_hv64" x="128" width="2" height="100" fill="hsl(64, 100%, 50%)"/>
<rect id="_hv65" x="130" width="2" height="100" fill="hsl(65, 100%, 50%)"/>
<rect id="_hv66" x="132" width="2" height="100" fill="hsl(66, 100%, 50%)"/>
<rect id="_hv67" x="134" width="2" height="100" fill="hsl(67, 100%, 50%)"/>
<rect id="_hv68" x="136" width="2" height="100" fill="hsl(68, 100%, 50%)"/>
<rect id="_hv69" x="138" width="2" height="100" fill="hsl(69, 100%, 50%)"/>
<rect id="_hv70" x="140" width="2" height="100" fill="hsl(70, 100%, 50%)"/>
<rect id="_hv71" x="142" width="2" height="100" fill="hsl(71, 100%, 50%)"/>
<rect id="_hv72" x="144" width="2" height="100" fill="hsl(72, 100%, 50%)"/>
<rect id="_hv73" x="146" width="2" height="100" fill="hsl(73, 100%, 50%)"/>
<rect id="_hv74" x="148" width="2" height="100" fill="hsl(74, 100%, 50%)"/>
<rect id="_hv75" x="150" width="2" height="100" fill="hsl(75, 100%, 50%)"/>
<rect id="_hv76" x="152" width="2" height="100" fill="hsl(76, 100%, 50%)"/>
<rect id="_hv77" x="154" width="2" height="100" fill="hsl(77, 100%, 50%)"/>
<rect id="_hv78" x="156" width="2" height="100" fill="hsl(78, 100%, 50%)"/>
<rect id="_hv79" x="158" width="2" height="100" fill="hsl(79, 100%, 50%)"/>
<rect id="_hv80" x="160" width="2" height="100" fill="hsl(80, 100%, 50%)"/>
<rect id="_hv81" x="162" width="2" height="100" fill="hsl(81, 100%, 50%)"/>
<rect id="_hv82" x="164" width="2" height="100" fill="hsl(82, 100%, 50%)"/>
<rect id="_hv83" x="166" width="2" height="100" fill="hsl(83, 100%, 50%)"/>
<rect id="_hv84" x="168" width="2" height="100" fill="hsl(84, 100%, 50%)"/>
<rect id="_hv85" x="170" width="2" height="100" fill="hsl(85, 100%, 50%)"/>
<rect id="_hv86" x="172" width="2" height="100" fill="hsl(86, 100%, 50%)"/>
<rect id="_hv87" x="174" width="2" height="100" fill="hsl(87, 100%, 50%)"/>
<rect id="_hv88" x="176" width="2" height="100" fill="hsl(88, 100%, 50%)"/>
<rect id="_hv89" x="178" width="2" height="100" fill="hsl(89, 100%, 50%)"/>
<rect id="_hv90" x="180" width="2" height="100" fill="hsl(90, 100%, 50%)"/>
<rect id="_hv91" x="182" width="2" height="100" fill="hsl(91, 100%, 50%)"/>
<rect id="_hv92" x="184" width="2" height="100" fill="hsl(92, 100%, 50%)"/>
<rect id="_hv93" x="186" width="2" height="100" fill="hsl(93, 100%, 50%)"/>
<rect id="_hv94" x="188" width="2" height="100" fill="hsl(94, 100%, 50%)"/>
<rect id="_hv95" x="190" width="2" height="100" fill="hsl(95, 100%, 50%)"/>
<rect id="_hv96" x="192" width="2" height="100" fill="hsl(96, 100%, 50%)"/>
<rect id="_hv97" x="194" width="2" height="100" fill="hsl(97, 100%, 50%)"/>
<rect id="_hv98" x="196" width="2" height="100" fill="hsl(98, 100%, 50%)"/>
<rect id="_hv99" x="198" width="2" height="100" fill="hsl(99, 100%, 50%)"/>
<rect id="_hv100" x="200" width="2" height="100" fill="hsl(100, 100%, 50%)"/>
<rect id="_hv101" x="202" width="2" height="100" fill="hsl(101, 100%, 50%)"/>
<rect id="_hv102" x="204" width="2" height="100" fill="hsl(102, 100%, 50%)"/>
<rect id="_hv103" x="206" width="2" height="100" fill="hsl(103, 100%, 50%)"/>
<rect id="_hv104" x="208" width="2" height="100" fill="hsl(104, 100%, 50%)"/>
<rect id="_hv105" x="210" width="2" height="100" fill="hsl(105, 100%, 50%)"/>
<rect id="_hv106" x="212" width="2" height="100" fill="hsl(106, 100%, 50%)"/>
<rect id="_hv107" x="214" width="2" height="100" fill="hsl(107, 100%, 50%)"/>
<rect id="_hv108" x="216" width="2" height="100" fill="hsl(108, 100%, 50%)"/>
<rect id="_hv109" x="218" width="2" height="100" fill="hsl(109, 100%, 50%)"/>
<rect id="_hv110" x="220" width="2" height="100" fill="hsl(110, 100%, 50%)"/>
<rect id="_hv111" x="222" width="2" height="100" fill="hsl(111, 100%, 50%)"/>
<rect id="_hv112" x="224" width="2" height="100" fill="hsl(112, 100%, 50%)"/>
<rect id="_hv113" x="226" width="2" height="100" fill="hsl(113, 100%, 50%)"/>
<rect id="_hv114" x="228" width="2" height="100" fill="hsl(114, 100%, 50%)"/>
<rect id="_hv115" x="230" width="2" height="100" fill="hsl(115, 100%, 50%)"/>
<rect id="_hv116" x="232" width="2" height="100" fill="hsl(116, 100%, 50%)"/>
<rect id="_hv117" x="234" width="2" height="100" fill="hsl(117, 100%, 50%)"/>
<rect id="_hv118" x="236" width="2" height="100" fill="hsl(118, 100%, 50%)"/>
<rect id="_hv119" x="238" width="2" height="100" fill="hsl(119, 100%, 50%)"/>
<rect id="_hv120" x="240" width="2" height="100" fill="hsl(120, 100%, 50%)"/>
<rect id="_hv121" x="242" width="2" height="100" fill="hsl(121, 100%, 50%)"/>
<rect id="_hv122" x="244" width="2" height="100" fill="hsl(122, 100%, 50%)"/>
<rect id="_hv123" x="246" width="2" height="100" fill="hsl(123, 100%, 50%)"/>
<rect id="_hv124" x="248" width="2" height="100" fill="hsl(124, 100%, 50%)"/>
<rect id="_hv125" x="250" width="2" height="100" fill="hsl(125, 100%, 50%)"/>
<rect id="_hv126" x="252" width="2" height="100" fill="hsl(126, 100%, 50%)"/>
<rect id="_hv127" x="254" width="2" height="100" fill="hsl(127, 100%, 50%)"/>
<rect id="_hv128" x="256" width="2" height="100" fill="hsl(128, 100%, 50%)"/>
<rect id="_hv129" x="258" width="2" height="100" fill="hsl(129, 100%, 50%)"/>
<rect id="_hv130" x="260" width="2" height="100" fill="hsl(130, 100%, 50%)"/>
<rect id="_hv131" x="262" width="2" height="100" fill="hsl(131, 100%, 50%)"/>
<rect id="_hv132" x="264" width="2" height="100" fill="hsl(132, 100%, 50%)"/>
<rect id="_hv133" x="266" width="2" height="100" fill="hsl(133, 100%, 50%)"/>
<rect id="_hv134" x="268" width="2" height="100" fill="hsl(134, 100%, 50%)"/>
<rect id="_hv135" x="270" width="2" height="100" fill="hsl(135, 100%, 50%)"/>
<rect id="_hv136" x="272" width="2" height="100" fill="hsl(136, 100%, 50%)"/>
<rect id="_hv137" x="274" width="2" height="100" fill="hsl(137, 100%, 50%)"/>
<rect id="_hv138" x="276" width="2" height="100" fill="hsl(138, 100%, 50%)"/>
<rect id="_hv139" x="278" width="2" height="100" fill="hsl(139, 100%, 50%)"/>
<rect id="_hv140" x="280" width="2" height="100" fill="hsl(140, 100%, 50%)"/>
<rect id="_hv141" x="282" width="2" height="100" fill="hsl(141, 100%, 50%)"/>
<rect id="_hv142" x="284" width="2" height="100" fill="hsl(142, 100%, 50%)"/>
<rect id="_hv143" x="286" width="2" height="100" fill="hsl(143, 100%, 50%)"/>
<rect id="_hv144" x="288" width="2" height="100" fill="hsl(144, 100%, 50%)"/>
<rect id="_hv145" x="290" width="2" height="100" fill="hsl(145, 100%, 50%)"/>
<rect id="_hv146" x="292" width="2" height="100" fill="hsl(146, 100%, 50%)"/>
<rect id="_hv147" x="294" width="2" height="100" fill="hsl(147, 100%, 50%)"/>
<rect id="_hv148" x="296" width="2" height="100" fill="hsl(148, 100%, 50%)"/>
<rect id="_hv149" x="298" width="2" height="100" fill="hsl(149, 100%, 50%)"/>
<rect id="_hv150" x="300" width="2" height="100" fill="hsl(150, 100%, 50%)"/>
<rect id="_hv151" x="302" width="2" height="100" fill="hsl(151, 100%, 50%)"/>
<rect id="_hv152" x="304" width="2" height="100" fill="hsl(152, 100%, 50%)"/>
<rect id="_hv153" x="306" width="2" height="100" fill="hsl(153, 100%, 50%)"/>
<rect id="_hv154" x="308" width="2" height="100" fill="hsl(154, 100%, 50%)"/>
<rect id="_hv155" x="310" width="2" height="100" fill="hsl(155, 100%, 50%)"/>
<rect id="_hv156" x="312" width="2" height="100" fill="hsl(156, 100%, 50%)"/>
<rect id="_hv157" x="314" width="2" height="100" fill="hsl(157, 100%, 50%)"/>
<rect id="_hv158" x="316" width="2" height="100" fill="hsl(158, 100%, 50%)"/>
<rect id="_hv159" x="318" width="2" height="100" fill="hsl(159, 100%, 50%)"/>
<rect id="_hv160" x="320" width="2" height="100" fill="hsl(160, 100%, 50%)"/>
<rect id="_hv161" x="322" width="2" height="100" fill="hsl(161, 100%, 50%)"/>
<rect id="_hv162" x="324" width="2" height="100" fill="hsl(162, 100%, 50%)"/>
<rect id="_hv163" x="326" width="2" height="100" fill="hsl(163, 100%, 50%)"/>
<rect id="_hv164" x="328" width="2" height="100" fill="hsl(164, 100%, 50%)"/>
<rect id="_hv165" x="330" width="2" height="100" fill="hsl(165, 100%, 50%)"/>
<rect id="_hv166" x="332" width="2" height="100" fill="hsl(166, 100%, 50%)"/>
<rect id="_hv167" x="334" width="2" height="100" fill="hsl(167, 100%, 50%)"/>
<rect id="_hv168" x="336" width="2" height="100" fill="hsl(168, 100%, 50%)"/>
<rect id="_hv169" x="338" width="2" height="100" fill="hsl(169, 100%, 50%)"/>
<rect id="_hv170" x="340" width="2" height="100" fill="hsl(170, 100%, 50%)"/>
<rect id="_hv171" x="342" width="2" height="100" fill="hsl(171, 100%, 50%)"/>
<rect id="_hv172" x="344" width="2" height="100" fill="hsl(172, 100%, 50%)"/>
<rect id="_hv173" x="346" width="2" height="100" fill="hsl(173, 100%, 50%)"/>
<rect id="_hv174" x="348" width="2" height="100" fill="hsl(174, 100%, 50%)"/>
<rect id="_hv175" x="350" width="2" height="100" fill="hsl(175, 100%, 50%)"/>
<rect id="_hv176" x="352" width="2" height="100" fill="hsl(176, 100%, 50%)"/>
<rect id="_hv177" x="354" width="2" height="100" fill="hsl(177, 100%, 50%)"/>
<rect id="_hv178" x="356" width="2" height="100" fill="hsl(178, 100%, 50%)"/>
<rect id="_hv179" x="358" width="2" height="100" fill="hsl(179, 100%, 50%)"/>
<rect id="_hv180" x="360" width="2" height="100" fill="hsl(180, 100%, 50%)"/>
<rect id="_hv181" x="362" width="2" height="100" fill="hsl(181, 100%, 50%)"/>
<rect id="_hv182" x="364" width="2" height="100" fill="hsl(182, 100%, 50%)"/>
<rect id="_hv183" x="366" width="2" height="100" fill="hsl(183, 100%, 50%)"/>
<rect id="_hv184" x="368" width="2" height="100" fill="hsl(184, 100%, 50%)"/>
<rect id="_hv185" x="370" width="2" height="100" fill="hsl(185, 100%, 50%)"/>
<rect id="_hv186" x="372" width="2" height="100" fill="hsl(186, 100%, 50%)"/>
<rect id="_hv187" x="374" width="2" height="100" fill="hsl(187, 100%, 50%)"/>
<rect id="_hv188" x="376" width="2" height="100" fill="hsl(188, 100%, 50%)"/>
<rect id="_hv189" x="378" width="2" height="100" fill="hsl(189, 100%, 50%)"/>
<rect id="_hv190" x="380" width="2" height="100" fill="hsl(190, 100%, 50%)"/>
<rect id="_hv191" x="382" width="2" height="100" fill="hsl(191, 100%, 50%)"/>
<rect id="_hv192" x="384" width="2" height="100" fill="hsl(192, 100%, 50%)"/>
<rect id="_hv193" x="386" width="2" height="100" fill="hsl(193, 100%, 50%)"/>
<rect id="_hv194" x="388" width="2" height="100" fill="hsl(194, 100%, 50%)"/>
<rect id="_hv195" x="390" width="2" height="100" fill="hsl(195, 100%, 50%)"/>
<rect id="_hv196" x="392" width="2" height="100" fill="hsl(196, 100%, 50%)"/>
<rect id="_hv197" x="394" width="2" height="100" fill="hsl(197, 100%, 50%)"/>
<rect id="_hv198" x="396" width="2" height="100" fill="hsl(198, 100%, 50%)"/>
<rect id="_hv199" x="398" width="2" height="100" fill="hsl(199, 100%, 50%)"/>
<rect id="_hv200" x="400" width="2" height="100" fill="hsl(200, 100%, 50%)"/>
<rect id="_hv201" x="402" width="2" height="100" fill="hsl(201, 100%, 50%)"/>
<rect id="_hv202" x="404" width="2" height="100" fill="hsl(202, 100%, 50%)"/>
<rect id="_hv203" x="406" width="2" height="100" fill="hsl(203, 100%, 50%)"/>
<rect id="_hv204" x="408" width="2" height="100" fill="hsl(204, 100%, 50%)"/>
<rect id="_hv205" x="410" width="2" height="100" fill="hsl(205, 100%, 50%)"/>
<rect id="_hv206" x="412" width="2" height="100" fill="hsl(206, 100%, 50%)"/>
<rect id="_hv207" x="414" width="2" height="100" fill="hsl(207, 100%, 50%)"/>
<rect id="_hv208" x="416" width="2" height="100" fill="hsl(208, 100%, 50%)"/>
<rect id="_hv209" x="418" width="2" height="100" fill="hsl(209, 100%, 50%)"/>
<rect id="_hv210" x="420" width="2" height="100" fill="hsl(210, 100%, 50%)"/>
<rect id="_hv211" x="422" width="2" height="100" fill="hsl(211, 100%, 50%)"/>
<rect id="_hv212" x="424" width="2" height="100" fill="hsl(212, 100%, 50%)"/>
<rect id="_hv213" x="426" width="2" height="100" fill="hsl(213, 100%, 50%)"/>
<rect id="_hv214" x="428" width="2" height="100" fill="hsl(214, 100%, 50%)"/>
<rect id="_hv215" x="430" width="2" height="100" fill="hsl(215, 100%, 50%)"/>
<rect id="_hv216" x="432" width="2" height="100" fill="hsl(216, 100%, 50%)"/>
<rect id="_hv217" x="434" width="2" height="100" fill="hsl(217, 100%, 50%)"/>
<rect id="_hv218" x="436" width="2" height="100" fill="hsl(218, 100%, 50%)"/>
<rect id="_hv219" x="438" width="2" height="100" fill="hsl(219, 100%, 50%)"/>
<rect id="_hv220" x="440" width="2" height="100" fill="hsl(220, 100%, 50%)"/>
<rect id="_hv221" x="442" width="2" height="100" fill="hsl(221, 100%, 50%)"/>
<rect id="_hv222" x="444" width="2" height="100" fill="hsl(222, 100%, 50%)"/>
<rect id="_hv223" x="446" width="2" height="100" fill="hsl(223, 100%, 50%)"/>
<rect id="_hv224" x="448" width="2" height="100" fill="hsl(224, 100%, 50%)"/>
<rect id="_hv225" x="450" width="2" height="100" fill="hsl(225, 100%, 50%)"/>
<rect id="_hv226" x="452" width="2" height="100" fill="hsl(226, 100%, 50%)"/>
<rect id="_hv227" x="454" width="2" height="100" fill="hsl(227, 100%, 50%)"/>
<rect id="_hv228" x="456" width="2" height="100" fill="hsl(228, 100%, 50%)"/>
<rect id="_hv229" x="458" width="2" height="100" fill="hsl(229, 100%, 50%)"/>
<rect id="_hv230" x="460" width="2" height="100" fill="hsl(230, 100%, 50%)"/>
<rect id="_hv231" x="462" width="2" height="100" fill="hsl(231, 100%, 50%)"/>
<rect id="_hv232" x="464" width="2" height="100" fill="hsl(232, 100%, 50%)"/>
<rect id="_hv233" x="466" width="2" height="100" fill="hsl(233, 100%, 50%)"/>
<rect id="_hv234" x="468" width="2" height="100" fill="hsl(234, 100%, 50%)"/>
<rect id="_hv235" x="470" width="2" height="100" fill="hsl(235, 100%, 50%)"/>
<rect id="_hv236" x="472" width="2" height="100" fill="hsl(236, 100%, 50%)"/>
<rect id="_hv237" x="474" width="2" height="100" fill="hsl(237, 100%, 50%)"/>
<rect id="_hv238" x="476" width="2" height="100" fill="hsl(238, 100%, 50%)"/>
<rect id="_hv239" x="478" width="2" height="100" fill="hsl(239, 100%, 50%)"/>
<rect id="_hv240" x="480" width="2" height="100" fill="hsl(240, 100%, 50%)"/>
</svg>
